<?xml version="1.0" encoding="utf-8"?>
<!-- Generator: Adobe Illustrator 23.1.1, SVG Export Plug-In . SVG Version: 6.00 Build 0)  -->
<svg version="1.1" id="Layer_1" xmlns="http://www.w3.org/2000/svg" xmlns:xlink="http://www.w3.org/1999/xlink" x="0px" y="0px"
	 viewBox="0 0 2487.2 2487.2" style="enable-background:new 0 0 2487.2 2487.2;" xml:space="preserve">
<style type="text/css">
	.st0{fill:#2D313B;}
	.st1{fill:#0ACF83;}
	.st2{fill:#A259FF;}
	.st3{fill:#F24E1E;}
	.st4{fill:#FF7262;}
	.st5{fill:#1ABCFE;}
</style>
<path class="st0" d="M2171,2487.2H316.2C141.6,2487.2,0,2345.6,0,2171V316.2C0,141.6,141.6,0,316.2,0H2171
	c174.6,0,316.2,141.6,316.2,316.2V2171C2487.2,2345.6,2345.6,2487.2,2171,2487.2z"/>
<title>Figma.logo</title>
<desc>Created using Figma</desc>
<g>
	<path id="path0_fill" class="st1" d="M899.6,2232.4c185,0,335.1-150.1,335.1-335.1v-335.1H899.6c-185,0-335.1,150.1-335.1,335.1
		S714.6,2232.4,899.6,2232.4z"/>
	<path id="path1_fill" class="st2" d="M564.4,1227c0-185,150.1-335.1,335.1-335.1h335.1v670.3H899.6
		C714.6,1562.1,564.4,1412,564.4,1227z"/>
	<path id="path1_fill_1_" class="st3" d="M564.4,556.7c0-185,150.1-335.1,335.1-335.1h335.1v670.3H899.6
		C714.6,891.9,564.4,741.7,564.4,556.7z"/>
	<path id="path2_fill" class="st4" d="M1234.7,221.6h335.1c185,0,335.1,150.1,335.1,335.1s-150.1,335.1-335.1,335.1h-335.1V221.6z"
		/>
	<path id="path3_fill" class="st5" d="M1905,1227c0,185-150.1,335.1-335.1,335.1S1234.7,1412,1234.7,1227s150.1-335.1,335.1-335.1
		S1905,1042,1905,1227z"/>
</g>
</svg>
